# xmcd
#
# Track frame offsets:
#	150
#	5077
#	30207
#	56906
#	63423
#	68385
#	75890
#	101313
#	114123
#	149987
#	176892
#	196053
#	218144
#	235002
#	250162
#	267628
#	292877
#	305314
#	325749
#
# Disc length: 4579 seconds
#
# Revision: 1
# Processed by: cddbd v1.5.2PL0 Copyright (c) Steve Scherf et al.
# Submitted via: audiograbber 1.83.01
#
DISCID=0111e113
DTITLE=Various Artist - CD02-500 Years of Organ Music - Rossi, Merula
DYEAR=2014
DGENRE=Organ
TTITLE0=Michelangelo Rossi (c1601-2-1656) - Corrente prima
TTITLE1=Michelangelo Rossi (c1601-2-1656) - Toccata seconda
TTITLE2=Michelangelo Rossi (c1601-2-1656) - Toccata terza
TTITLE3=Michelangelo Rossi (c1601-2-1656) - Corrente terza
TTITLE4=Michelangelo Rossi (c1601-2-1656) - Corrente quinta
TTITLE5=Michelangelo Rossi (c1601-2-1656) - Corrente sesta
TTITLE6=Michelangelo Rossi (c1601-2-1656) - Toccata settima
TTITLE7=Michelangelo Rossi (c1601-2-1656) - Corrente nona
TTITLE8=Michelangelo Rossi (c1601-2-1656) - Toccata decima
TTITLE9=Michelangelo Rossi (c1601-2-1656) - Toccata quarta
TTITLE10=Tarquinio Merula (1595-1665) - Toccata del secondo tono
TTITLE11=Tarquinio Merula (1595-1665) - Canzone [V]
TTITLE12=Tarquinio Merula (1595-1665) - Canzone [IV]
TTITLE13=Tarquinio Merula (1595-1665) - Capriccio
TTITLE14=Tarquinio Merula (1595-1665) - Intonazione cromatica del quarto tono
TTITLE15=Tarquinio Merula (1595-1665) - Toccata e genus cromaticum primi toni
TTITLE16=Tarquinio Merula (1595-1665) - Canzone []
TTITLE17=Tarquinio Merula (1595-1665) - Canzone [II)
TTITLE18=Tarquinio Merula (1595-1665) - Intonazione cromatica dei nono tono
EXTD=
EXTT0=
EXTT1=
EXTT2=
EXTT3=
EXTT4=
EXTT5=
EXTT6=
EXTT7=
EXTT8=
EXTT9=
EXTT10=
EXTT11=
EXTT12=
EXTT13=
EXTT14=
EXTT15=
EXTT16=
EXTT17=
EXTT18=
PLAYORDER=
